<svg xmlns="http://www.w3.org/2000/svg" viewBox="0 0 164 35" fill="#ffc600">
  <path d="M.35.7v33.6h13.53a15.72 15.72 0 0 0 11.72-4.82 16.46 16.46 0 0 0 4.71-11.98 16.46 16.46 0 0 0-4.7-11.98A15.72 15.72 0 0 0 13.87.7zm7.73 26.2V8.1h5.8a8.65 8.65 0 0 1 6.5 2.57 9.41 9.41 0 0 1 2.5 6.84 9.41 9.41 0 0 1-2.5 6.84 8.65 8.65 0 0 1-6.5 2.56h-5.8zm34.8-5.94h12.08v-7.3H42.88V8.09h13.29V.7H35.15v33.6H56.4v-7.4H42.88v-5.94zM79.23 34.3L90.24.7H81.8l-7.5 24.72L66.82.7h-8.46l11.02 33.6zm14.4 0h7.73V.7h-7.73zm38.61-1.42a15.51 15.51 0 0 0 6.04-5.68l-6.67-3.84a7.49 7.49 0 0 1-3.16 3.02 9.87 9.87 0 0 1-4.67 1.1 9.6 9.6 0 0 1-7.17-2.74 9.9 9.9 0 0 1-2.69-7.24 9.9 9.9 0 0 1 2.69-7.25 9.6 9.6 0 0 1 7.17-2.74 9.91 9.91 0 0 1 4.64 1.08 7.6 7.6 0 0 1 3.2 3.05l6.66-3.84a15.88 15.88 0 0 0-6.09-5.69 17.42 17.42 0 0 0-8.4-2.09 17.12 17.12 0 0 0-17.6 17.48 17.12 17.12 0 0 0 17.59 17.47 17.52 17.52 0 0 0 8.46-2.09zm17.88-11.92h12.08v-7.3h-12.08V8.09h13.29V.7h-21.02v33.6h21.26v-7.4h-13.53v-5.94z"/>
</svg>
